<svg xmlns="http://www.w3.org/2000/svg" viewBox="0 0 24 24" fill="none" stroke="currentColor" stroke-width="1.5" stroke-linecap="round" stroke-linejoin="round">
  <path d="M11.1 2.5a1 1 0 0 1 1.8 0l.6 1.4a1 1 0 0 0 .92.6h1.48a1 1 0 0 1 .95 1.35l-.56 1.43a1 1 0 0 0 .27 1.08l1.15 1.02a1 1 0 0 1 0 1.48l-1.15 1.02a1 1 0 0 0-.27 1.08l.56 1.43a1 1 0 0 1-.95 1.35h-1.48a1 1 0 0 0-.92.6l-.6 1.4a1 1 0 0 1-1.8 0l-.6-1.4a1 1 0 0 0-.92-.6H8.1a1 1 0 0 1-.95-1.35l.56-1.43a1 1 0 0 0-.27-1.08l-1.15-1.02a1 1 0 0 1 0-1.48l1.15-1.02a1 1 0 0 0 .27-1.08L7.15 5.85A1 1 0 0 1 8.1 4.5h1.48a1 1 0 0 0 .92-.6l.6-1.4Z"/>
  <circle cx="12" cy="12" r="3.25"/>
</svg>
